# xmcd CD database file generated by Grip 3.3.1
#
# Track frame offsets:
#       150
#       13591
#       25313
#       38760
#       53031
#       66740
#       78855
#       91414
#       105541
#       118994
#       133580
#       147948
#
# Disc length: 2191 seconds
#
# Revision: 1
# Processed by: cddbd v1.5.2PL0 Copyright (c) Steve Scherf et al.
# Submitted via: Grip 3.3.1
#
DISCID=a3088d0c
DTITLE=Rufio - Anybody out there
DYEAR=2010
DGENRE=Punk Rock
TTITLE0=Little world
TTITLE1=Drunk in love
TTITLE2=Under 18
TTITLE3=What you wanna hear
TTITLE4=Deep end
TTITLE5=Gold and silver
TTITLE6=Anybody out there
TTITLE7=All that lats
TTITLE8=This I swear
TTITLE9=The loneliness
TTITLE10=Run
TTITLE11=Moonshine
EXTD=
EXTT0=
EXTT1=
EXTT2=
EXTT3=
EXTT4=
EXTT5=
EXTT6=
EXTT7=
EXTT8=
EXTT9=
EXTT10=
EXTT11=
PLAYORDER=
